<svg xmlns="http://www.w3.org/2000/svg" xmlns:xlink="http://www.w3.org/1999/xlink" width="1920" height="1080" viewBox="0 0 1920 1080"><defs><linearGradient id="linear-gradient" x1="210" y1="1290" x2="1710" y2="-210" gradientUnits="userSpaceOnUse"><stop offset="0" stop-color="#70ff70"/><stop offset="1" stop-color="#70ff70"/></linearGradient><linearGradient id="linear-gradient-2" x1="210" y1="1290" x2="1710" y2="-210" gradientUnits="userSpaceOnUse"><stop offset="0" stop-color="#fff"/><stop offset="0.47" stop-color="#70ff70"/><stop offset="1" stop-color="#fff"/></linearGradient></defs><title>banner</title><g style="isolation:isolate"><g id="Layer_1" data-name="Layer 1"><rect width="1920" height="1080" fill="url(#linear-gradient)" style="mix-blend-mode:color-burn"/><polygon points="0 0 181 179 255 0 0 0" fill="#6e71a4"/><polygon points="0 233 181 179 0 0 0 233" fill="#585893"/><polygon points="0 453 151 371 0 233 0 453" fill="#3a367c"/><polygon points="381 371 181 179 411 179 381 371" fill="#64669c"/><polygon points="151 371 181 179 0 233 151 371" fill="#565691"/><polygon points="255 0 411 179 181 179 255 0" fill="#585893"/><polygon points="381 371 151 371 181 179 381 371" fill="#53538f"/><polygon points="181 583 151 371 0 453 181 583" fill="#28226e"/><polygon points="0 651 181 583 0 453 0 651" fill="#241e6b"/><polygon points="381 371 181 583 151 371 381 371" fill="#423f82"/><polygon points="169 817 181 583 0 651 169 817" fill="#1c1565"/><polygon points="0 651 169 817 0 909 0 651" fill="#2e2973"/><polygon points="0 1080 169 817 0 909 0 1080" fill="#211b69"/><polygon points="169 817 148.5 994.5 0 1080 169 817" fill="#27216d"/><polygon points="365 599 181 583 169 817 365 599" fill="#3a367c"/><polygon points="381 371 365 599 181 583 381 371" fill="#332e76"/><polygon points="507 0 411 179 255 0 507 0" fill="#606199"/><polygon points="381 371 561 213 411 179 381 371" fill="#474586"/><polygon points="507 0 561 213 411 179 507 0" fill="#504f8d"/><polygon points="381 371 665.5 407.5 585 515 381 371" fill="#696ba0"/><polygon points="365 599 585 515 381 371 365 599" fill="#494787"/><polygon points="169 817 401 768 365 599 169 817" fill="#3e3b7f"/><polygon points="585 515 527 659 365 599 585 515" fill="#332e76"/><polygon points="401 768 527 659 365 599 401 768" fill="#3a367c"/><polygon points="169 817 365 897 401 768 169 817" fill="#28226e"/><polygon points="345 1080 365 897 169 817 345 1080" fill="#211b69"/><polygon points="401 768 527 909 365 897 401 768" fill="#474485"/><polygon points="345 1080 527 909 365 897 345 1080" fill="#37337a"/><polygon points="345 1080 148.5 994.5 169 817 345 1080" fill="#1c1565"/><polygon points="527 909 595 1019 345 1080 527 909" fill="#2a2570"/><polygon points="551.5 1080.5 595 1019 345 1080 551.5 1080.5" fill="#211b69"/><polygon points="401 768 609 749 527 909 401 768" fill="#332e76"/><polygon points="527 659 609 749 401 768 527 659" fill="#26206c"/><polygon points="585 515 757 682 527 659 585 515" fill="#696ba0"/><polygon points="609 749 693 897 527 909 609 749" fill="#3e3b7f"/><polygon points="595 1019 693 897 527 909 595 1019" fill="#332f77"/><polygon points="773 1080 693 897 595 1019 773 1080" fill="#3b377c"/><polygon points="757 682 609 749 527 659 757 682" fill="#4f4d8c"/><polygon points="693 897 757 682 609 749 693 897" fill="#5d5e97"/><polygon points="148.5 994.5 168.5 1080 0 1080 148.5 994.5" fill="#1d1665"/><polygon points="344.5 1080 168.5 1080 148.5 994.5 344.5 1080" fill="#2c2771"/><polygon points="772.5 1079.5 594.5 1018.5 551.5 1080.5 772.5 1079.5" fill="#1c1565"/><polygon points="756.5 681.5 858.5 880.5 692.5 896.5 756.5 681.5" fill="#565691"/><polygon points="772.5 1079.5 858.5 880.5 692.5 896.5 772.5 1079.5" fill="#4e4c8b"/><polygon points="756.5 681.5 884.5 638.5 858.5 880.5 756.5 681.5" fill="#5f6098"/><polygon points="584.5 514.5 784.5 476.5 756.5 681.5 584.5 514.5" fill="#7e82b0"/><polygon points="884.5 638.5 784.5 476.5 756.5 681.5 884.5 638.5" fill="#8489b5"/><polygon points="665.5 407.5 784.5 476.5 584.5 514.5 665.5 407.5" fill="#6e70a3"/><polygon points="380.5 370.5 560.5 328.5 665.5 407.5 380.5 370.5" fill="#7679a9"/><polygon points="560.5 212.5 560.5 328.5 380.5 370.5 560.5 212.5" fill="#52528e"/><polygon points="665.5 407.5 560.5 212.5 560.5 328.5 665.5 407.5" fill="#606199"/><polygon points="506.5 -0.5 663.5 -0.5 560.5 212.5 506.5 -0.5" fill="#7b7fae"/><polygon points="665.5 407.5 747.5 212.5 560.5 212.5 665.5 407.5" fill="#7073a5"/><polygon points="784.5 476.5 834.5 337.5 665.5 407.5 784.5 476.5" fill="#868bb6"/><polygon points="747.5 212.5 834.5 337.5 665.5 407.5 747.5 212.5" fill="#7b7fae"/><polygon points="663.5 -0.5 769.5 65.5 560.5 212.5 663.5 -0.5" fill="#65679d"/><polygon points="747.5 212.5 769.5 65.5 560.5 212.5 747.5 212.5" fill="#6e71a4"/><polygon points="1920 0 1738.5 117 1664.5 0 1920 0" fill="#1c1565"/><polygon points="1920 233 1738.5 117 1920 0 1920 233" fill="#231d6a"/><polygon points="1920 500 1843.5 343 1920 233 1920 500" fill="#201967"/><polygon points="1567.5 416 1738.5 117 1508.5 179 1567.5 416" fill="#332e76"/><polygon points="1843.5 343 1738.5 117 1920 233 1843.5 343" fill="#2a246f"/><polygon points="1664.5 0 1508.5 179 1738.5 117 1664.5 0" fill="#2c2771"/><polygon points="1567.5 416 1843.5 343 1738.5 117 1567.5 416" fill="#2c2771"/><polygon points="1738.5 583 1843.5 343 1920 500 1738.5 583" fill="#2e2973"/><polygon points="1920 698 1738.5 583 1920 500 1920 698" fill="#1e1766"/><polygon points="1567.5 416 1738.5 583 1843.5 343 1567.5 416" fill="#332e76"/><polygon points="1707.5 865 1738.5 583 1920 698 1707.5 865" fill="#26206c"/><polygon points="1920 698 1707.5 865 1920 817 1920 698" fill="#3f3c80"/><polygon points="1920 1080 1707.5 865 1920 817 1920 1080" fill="#201967"/><polygon points="1707.5 865 1739 1019.5 1920 1080 1707.5 865" fill="#3a367c"/><polygon points="1612.5 618 1738.5 583 1707.5 865 1612.5 618" fill="#37337a"/><polygon points="1567.5 416 1612.5 618 1738.5 583 1567.5 416" fill="#3d3a7e"/><polygon points="1412.5 0 1508.5 179 1664.5 0 1412.5 0" fill="#241e6b"/><polygon points="1567.5 416 1358.5 213 1508.5 179 1567.5 416" fill="#27216d"/><polygon points="1412.5 0 1358.5 213 1508.5 179 1412.5 0" fill="#302b74"/><polygon points="1567.5 416 1309 373.5 1302.5 558 1567.5 416" fill="#4f4d8c"/><polygon points="1612.5 618 1302.5 558 1567.5 416 1612.5 618" fill="#53538f"/><polygon points="1707.5 865 1518.5 768 1612.5 618 1707.5 865" fill="#2d2872"/><polygon points="1302.5 558 1392.5 659 1612.5 618 1302.5 558" fill="#494787"/><polygon points="1518.5 768 1392.5 659 1612.5 618 1518.5 768" fill="#3d397e"/><polygon points="1707.5 865 1554.5 897 1518.5 768 1707.5 865" fill="#4c4a8a"/><polygon points="1575 1080 1554.5 897 1707.5 865 1575 1080" fill="#585893"/><polygon points="1518.5 768 1392.5 909 1554.5 897 1518.5 768" fill="#585893"/><polygon points="1575 1080 1392.5 909 1554.5 897 1575 1080" fill="#5e5f97"/><polygon points="1575 1080 1739 1019.5 1707.5 865 1575 1080" fill="#464385"/><polygon points="1392.5 909 1324.5 1019 1575 1080 1392.5 909" fill="#66689e"/><polygon points="1368 1080.5 1324.5 1019 1575 1080 1368 1080.5" fill="#5d5e97"/><polygon points="1518.5 768 1310.5 749 1392.5 909 1518.5 768" fill="#5a5b95"/><polygon points="1392.5 659 1310.5 749 1518.5 768 1392.5 659" fill="#63649b"/><polygon points="1302.5 558 1162.5 682 1392.5 659 1302.5 558" fill="#5a5a94"/><polygon points="1310.5 749 1226.5 897 1392.5 909 1310.5 749" fill="#6e70a3"/><polygon points="1324.5 1019 1226.5 897 1392.5 909 1324.5 1019" fill="#65679d"/><polygon points="1146.5 1080 1226.5 897 1324.5 1019 1146.5 1080" fill="#8084b1"/><polygon points="1162.5 682 1310.5 749 1392.5 659 1162.5 682" fill="#5a5b95"/><polygon points="1226.5 897 1162.5 682 1310.5 749 1226.5 897" fill="#7b7fae"/><polygon points="1739 1019.5 1751 1079.5 1920 1080 1739 1019.5" fill="#474485"/><polygon points="1575 1080 1751 1079.5 1739 1019.5 1575 1080" fill="#464385"/><polygon points="1147 1079.5 1325 1018.5 1368 1080.5 1147 1079.5" fill="#595993"/><polygon points="1568 415.5 1402 324 1309 373.5 1568 415.5" fill="#302b74"/><polygon points="1359 212.5 1402 324 1568 415.5 1359 212.5" fill="#2c2771"/><polygon points="1309 373.5 1359 212.5 1402 323.5 1309 373.5" fill="#3a367c"/><polygon points="1413 -0.5 1256 -0.5 1359 212.5 1413 -0.5" fill="#3d3a7e"/><polygon points="1309 373.5 1236 207.5 1359 212.5 1309 373.5" fill="#454284"/><polygon points="1256 -0.5 1150 65.5 1359 212.5 1256 -0.5" fill="#332f77"/><polygon points="1236 207.5 1150 65.5 1359 212.5 1236 207.5" fill="#3e3b7f"/><polygon points="663.5 -0.5 834.5 -0.5 769.5 65.5 663.5 -0.5" fill="#474586"/><polygon points="747.5 212.5 876.5 138.5 769.5 65.5 747.5 212.5" fill="#5c5d96"/><polygon points="834.5 337.5 927.5 304.5 747.5 212.5 834.5 337.5" fill="#5a5b95"/><polygon points="876.5 138.5 969.5 212.5 747.5 212.5 876.5 138.5" fill="#6b6da1"/><polygon points="927.5 304.5 969.5 212.5 747.5 212.5 927.5 304.5" fill="#61629a"/><polygon points="834.5 337.5 784.5 476.5 918.5 415.5 834.5 337.5" fill="#7d81af"/><polygon points="927.5 304.5 918.5 415.5 834.5 337.5 927.5 304.5" fill="#65679d"/><polygon points="969.5 212.5 1063.5 123.5 876.5 138.5 969.5 212.5" fill="#403d80"/><polygon points="876.5 138.5 834.5 -0.5 769.5 65.5 876.5 138.5" fill="#3d397e"/><polygon points="1063.5 123.5 1150.5 65.5 1236.5 207.5 1063.5 123.5" fill="#4f4d8c"/><polygon points="876.5 138.5 937.5 59.5 834.5 -0.5 876.5 138.5" fill="#343077"/><polygon points="876.5 138.5 937.5 59.5 1063.5 123.5 876.5 138.5" fill="#52528e"/><polygon points="1040.5 59.5 1150.5 65.5 1063.5 123.5 1040.5 59.5" fill="#3d397e"/><polygon points="937.5 59.5 960.5 0.5 834.5 -0.5 937.5 59.5" fill="#413e81"/><polygon points="1040.5 59.5 960.5 0.5 937.5 59.5 1040.5 59.5" fill="#3b377c"/><polygon points="1040.5 59.5 937.5 59.5 1063.5 123.5 1040.5 59.5" fill="#4b4989"/><polygon points="1150.5 65.5 1137.5 0.5 1256.5 -0.5 1150.5 65.5" fill="#423f82"/><polygon points="1040.5 59.5 1137.5 0.5 1150.5 65.5 1040.5 59.5" fill="#3d3a7e"/><polygon points="960.5 0.5 1137.5 0.5 1040.5 59.5 960.5 0.5" fill="#37337a"/><polygon points="1063.5 123.5 1076.5 228.5 969.5 212.5 1063.5 123.5" fill="#4f4d8c"/><polygon points="1236.5 207.5 1076.5 228.5 1063.5 123.5 1236.5 207.5" fill="#434083"/><polygon points="969.5 212.5 1076.5 228.5 1040.5 310.5 969.5 212.5" fill="#3e3b7f"/><polygon points="927.5 304.5 1040.5 310.5 969.5 212.5 927.5 304.5" fill="#5b5c95"/><polygon points="918.5 415.5 1040.5 310.5 927.5 304.5 918.5 415.5" fill="#6e71a4"/><polygon points="784.5 476.5 938.5 536.5 918.5 415.5 784.5 476.5" fill="#8388b4"/><polygon points="884.5 638.5 938.5 536.5 784.5 476.5 884.5 638.5" fill="#7a7ead"/><polygon points="858.5 880.5 1007.5 765.5 884.5 638.5 858.5 880.5" fill="#777aaa"/><polygon points="938.5 536.5 1037.5 647.5 884.5 638.5 938.5 536.5" fill="#8084b1"/><polygon points="1007.5 765.5 1037.5 647.5 884.5 638.5 1007.5 765.5" fill="#6c6ea2"/><polygon points="1162.5 681.5 1037.5 647.5 1007.5 765.5 1162.5 681.5" fill="#868bb6"/><path d="M1302.5,557.5c-8,0-207-18-207-18l67,142Z" fill="#63649b"/><polygon points="1037.5 647.5 1095.5 539.5 1162.5 681.5 1037.5 647.5" fill="#777aaa"/><polygon points="938.5 536.5 1095.5 539.5 1037.5 647.5 938.5 536.5" fill="#6e70a3"/><polygon points="918.5 415.5 1095.5 539.5 938.5 536.5 918.5 415.5" fill="#8084b1"/><polygon points="1040.5 310.5 1037.5 412.5 918.5 415.5 1040.5 310.5" fill="#65679d"/><polygon points="1095.5 539.5 1037.5 412.5 918.5 415.5 1095.5 539.5" fill="#6e70a3"/><polygon points="1302.5 557.5 1180.5 463.5 1095.5 539.5 1302.5 557.5" fill="#53538f"/><polygon points="1309.5 373.5 1180.5 463.5 1302.5 557.5 1309.5 373.5" fill="#585893"/><polygon points="1037.5 412.5 1117.5 378.5 1180.5 463.5 1037.5 412.5" fill="#7073a5"/><polygon points="1095.5 539.5 1180.5 463.5 1037.5 412.5 1095.5 539.5" fill="#7073a5"/><polygon points="1040.5 310.5 1117.5 378.5 1037.5 412.5 1040.5 310.5" fill="#575792"/><polygon points="1076.5 228.5 1154.5 295.5 1236.5 207.5 1076.5 228.5" fill="#474485"/><polygon points="1040.5 310.5 1154.5 295.5 1076.5 228.5 1040.5 310.5" fill="#474586"/><polygon points="1117.5 378.5 1154.5 295.5 1040.5 310.5 1117.5 378.5" fill="#474586"/><polygon points="1309.5 373.5 1117.5 378.5 1180.5 463.5 1309.5 373.5" fill="#4e4c8b"/><polygon points="1154.5 295.5 1197.5 317.5 1117.5 378.5 1154.5 295.5" fill="#332f77"/><polygon points="1236.5 207.5 1197.5 317.5 1154.5 295.5 1236.5 207.5" fill="#3d397e"/><polygon points="1309.5 373.5 1197.5 317.5 1117.5 378.5 1309.5 373.5" fill="#51518e"/><polygon points="1236.5 207.5 1197.5 317.5 1309.5 373.5 1236.5 207.5" fill="#413e81"/><polygon points="858.5 880.5 933.5 988.5 772.5 1079.5 858.5 880.5" fill="#4d4b8a"/><path d="M1147.5,1079.5c-1,0-71-106-71-106l-97,106Z" fill="#595993"/><polygon points="933.5 988.5 979.5 1079.5 772.5 1079.5 933.5 988.5" fill="#3d3a7e"/><polygon points="1076.5 973.5 933.5 988.5 979.5 1079.5 1076.5 973.5" fill="#3d397e"/><polygon points="858.5 880.5 979.5 896.5 933.5 988.5 858.5 880.5" fill="#65679d"/><polygon points="1007.5 765.5 979.5 896.5 858.5 880.5 1007.5 765.5" fill="#7b7fae"/><polygon points="1076.5 973.5 979.5 896.5 933.5 988.5 1076.5 973.5" fill="#454284"/><polygon points="1226.5 896.5 1076.5 973.5 1147.5 1079.5 1226.5 896.5" fill="#6b6da1"/><polygon points="979.5 896.5 1108.5 865.5 1076.5 973.5 979.5 896.5" fill="#4e4c8b"/><polygon points="1007.5 765.5 1108.5 865.5 979.5 896.5 1007.5 765.5" fill="#7d81af"/><polygon points="1162.5 681.5 1108.5 865.5 1007.5 765.5 1162.5 681.5" fill="#6e70a3"/><polygon points="1226.5 896.5 1108.5 865.5 1076.5 973.5 1226.5 896.5" fill="#7a7ead"/><polygon points="1162.5 681.5 1108.5 865.5 1226.5 896.5 1162.5 681.5" fill="#858ab5"/><rect width="1920" height="1080" fill="url(#linear-gradient-2)" style="mix-blend-mode:color-burn"/></g></g></svg>